<svg xmlns="http://www.w3.org/2000/svg" version="1.1" xmlns:xlink="http://www.w3.org/1999/xlink" xmlns:svgjs="http://svgjs.dev/svgjs" width="2000" height="1252" viewBox="0 0 2000 1252"><g transform="matrix(1,0,0,1,-1.2121212121212466,-2.01935483870966)"><svg viewBox="0 0 396 248" data-background-color="#378dfc" preserveAspectRatio="xMidYMid meet" height="1252" width="2000" xmlns="http://www.w3.org/2000/svg" xmlns:xlink="http://www.w3.org/1999/xlink"><g id="tight-bounds" transform="matrix(1,0,0,1,0.2400000000000091,0.4000000000000057)"><svg viewBox="0 0 395.52 247.2" height="247.2" width="395.52"><g><svg></svg></g><g><svg viewBox="0 0 395.52 247.2" height="247.2" width="395.52"><g transform="matrix(1,0,0,1,75.54432,97.67962098550078)"><svg viewBox="0 0 244.43135999999998 51.840758028998444" height="51.840758028998444" width="244.43135999999998"><g><svg viewBox="0 0 335.6296311476598 71.18274224587152" height="51.840758028998444" width="244.43135999999998"><g transform="matrix(1,0,0,1,91.19827114765982,9.837846431954752)"><svg viewBox="0 0 244.43135999999996 51.50704938196202" height="51.50704938196202" width="244.43135999999996"><g id="textblocktransform"><svg viewBox="0 0 244.43135999999996 51.50704938196202" height="51.50704938196202" width="244.43135999999996" id="textblock"><g><svg viewBox="0 0 244.43135999999996 34.24248232408005" height="34.24248232408005" width="244.43135999999996"><g transform="matrix(1,0,0,1,0,0)"><svg width="244.43135999999996" viewBox="3.9 -32.1 232.32999999999998 32.550000000000004" height="34.24248232408005" data-palette-color="#ffffff"><path d="M5.9 0.35L5.9 0.35Q4.9 0.35 4.4-0.2 3.9-0.75 3.9-1.75L3.9-1.75 3.9-22.6Q3.9-23.6 4.4-24.13 4.9-24.65 5.85-24.65L5.85-24.65Q6.8-24.65 7.33-24.13 7.85-23.6 7.85-22.6L7.85-22.6 7.85-18.2 7.3-18.9Q8.25-21.7 10.38-23.23 12.5-24.75 15.45-24.75L15.45-24.75Q18.55-24.75 20.48-23.28 22.4-21.8 23.05-18.7L23.05-18.7 22.3-18.7Q23.2-21.5 25.53-23.13 27.85-24.75 30.95-24.75L30.95-24.75Q33.7-24.75 35.48-23.7 37.25-22.65 38.15-20.53 39.05-18.4 39.05-15.15L39.05-15.15 39.05-1.75Q39.05-0.75 38.53-0.2 38 0.35 37 0.35L37 0.35Q36.05 0.35 35.52-0.2 35-0.75 35-1.75L35-1.75 35-14.95Q35-18.3 33.85-19.88 32.7-21.45 29.95-21.45L29.95-21.45Q26.95-21.45 25.23-19.38 23.5-17.3 23.5-13.75L23.5-13.75 23.5-1.75Q23.5-0.75 22.98-0.2 22.45 0.35 21.45 0.35L21.45 0.35Q20.5 0.35 19.98-0.2 19.45-0.75 19.45-1.75L19.45-1.75 19.45-14.95Q19.45-18.3 18.28-19.88 17.1-21.45 14.4-21.45L14.4-21.45Q11.4-21.45 9.68-19.38 7.95-17.3 7.95-13.75L7.95-13.75 7.95-1.75Q7.95 0.35 5.9 0.35ZM56.35 0.45L56.35 0.45Q53.5 0.45 51.57-0.58 49.65-1.6 48.7-3.58 47.75-5.55 47.75-8.4L47.75-8.4 47.75-21.15 44.4-21.15Q43.55-21.15 43.1-21.58 42.65-22 42.65-22.75L42.65-22.75Q42.65-23.5 43.1-23.9 43.55-24.3 44.4-24.3L44.4-24.3 47.75-24.3 47.75-30.05Q47.75-31.05 48.3-31.58 48.85-32.1 49.8-32.1L49.8-32.1Q50.75-32.1 51.27-31.58 51.8-31.05 51.8-30.05L51.8-30.05 51.8-24.3 58.1-24.3Q58.95-24.3 59.4-23.9 59.85-23.5 59.85-22.75L59.85-22.75Q59.85-22 59.4-21.58 58.95-21.15 58.1-21.15L58.1-21.15 51.8-21.15 51.8-8.8Q51.8-5.95 53-4.48 54.2-3 56.9-3L56.9-3Q57.85-3 58.52-3.2 59.2-3.4 59.65-3.4L59.65-3.4Q60.1-3.45 60.4-3.1 60.7-2.75 60.7-1.9L60.7-1.9Q60.7-1.3 60.47-0.8 60.25-0.3 59.7-0.1L59.7-0.1Q59.1 0.1 58.12 0.28 57.15 0.45 56.35 0.45ZM71.75 0.45L71.75 0.45Q69.25 0.45 67.27-0.53 65.3-1.5 64.15-3.2 63-4.9 63-7L63-7Q63-9.7 64.37-11.25 65.75-12.8 68.92-13.45 72.1-14.1 77.6-14.1L77.6-14.1 79.85-14.1 79.85-11.45 77.65-11.45Q73.6-11.45 71.27-11.08 68.95-10.7 68.02-9.8 67.1-8.9 67.1-7.25L67.1-7.25Q67.1-5.2 68.52-3.9 69.95-2.6 72.4-2.6L72.4-2.6Q74.4-2.6 75.92-3.55 77.45-4.5 78.32-6.15 79.2-7.8 79.2-9.95L79.2-9.95 79.2-15.65Q79.2-18.75 77.95-20.13 76.7-21.5 73.85-21.5L73.85-21.5Q72.1-21.5 70.35-21.05 68.6-20.6 66.65-19.6L66.65-19.6Q65.95-19.25 65.45-19.38 64.95-19.5 64.65-19.9 64.35-20.3 64.3-20.83 64.25-21.35 64.52-21.85 64.8-22.35 65.4-22.65L65.4-22.65Q67.6-23.75 69.75-24.25 71.9-24.75 73.85-24.75L73.85-24.75Q77-24.75 79.05-23.73 81.1-22.7 82.1-20.63 83.1-18.55 83.1-15.3L83.1-15.3 83.1-1.75Q83.1-0.75 82.62-0.2 82.15 0.35 81.25 0.35L81.25 0.35Q80.3 0.35 79.8-0.2 79.3-0.75 79.3-1.75L79.3-1.75 79.3-5.65 79.75-5.65Q79.35-3.75 78.22-2.4 77.1-1.05 75.45-0.3 73.8 0.45 71.75 0.45ZM98.24 0.45L98.24 0.45Q95.74 0.45 93.77-0.53 91.79-1.5 90.64-3.2 89.49-4.9 89.49-7L89.49-7Q89.49-9.7 90.87-11.25 92.24-12.8 95.42-13.45 98.59-14.1 104.09-14.1L104.09-14.1 106.34-14.1 106.34-11.45 104.14-11.45Q100.09-11.45 97.77-11.08 95.44-10.7 94.52-9.8 93.59-8.9 93.59-7.25L93.59-7.25Q93.59-5.2 95.02-3.9 96.44-2.6 98.89-2.6L98.89-2.6Q100.89-2.6 102.42-3.55 103.94-4.5 104.82-6.15 105.69-7.8 105.69-9.95L105.69-9.95 105.69-15.65Q105.69-18.75 104.44-20.13 103.19-21.5 100.34-21.5L100.34-21.5Q98.59-21.5 96.84-21.05 95.09-20.6 93.14-19.6L93.14-19.6Q92.44-19.25 91.94-19.38 91.44-19.5 91.14-19.9 90.84-20.3 90.79-20.83 90.74-21.35 91.02-21.85 91.29-22.35 91.89-22.65L91.89-22.65Q94.09-23.75 96.24-24.25 98.39-24.75 100.34-24.75L100.34-24.75Q103.49-24.75 105.54-23.73 107.59-22.7 108.59-20.63 109.59-18.55 109.59-15.3L109.59-15.3 109.59-1.75Q109.59-0.75 109.12-0.2 108.64 0.35 107.74 0.35L107.74 0.35Q106.79 0.35 106.29-0.2 105.79-0.75 105.79-1.75L105.79-1.75 105.79-5.65 106.24-5.65Q105.84-3.75 104.72-2.4 103.59-1.05 101.94-0.3 100.29 0.45 98.24 0.45ZM138.39 0.35L138.39 0.35Q137.54 0.35 136.89-0.1 136.24-0.55 135.84-1.55L135.84-1.55 128.39-21.8Q128.09-22.65 128.21-23.3 128.34-23.95 128.84-24.3 129.34-24.65 130.09-24.65L130.09-24.65Q130.84-24.65 131.31-24.3 131.79-23.95 132.09-23L132.09-23 139.09-3 137.89-3 145.09-23Q145.44-23.9 145.96-24.28 146.49-24.65 147.34-24.65L147.34-24.65Q148.14-24.65 148.69-24.25 149.24-23.85 149.54-23L149.54-23 156.59-3 155.44-3 162.54-23.1Q162.89-24 163.39-24.33 163.89-24.65 164.59-24.65L164.59-24.65Q165.39-24.65 165.81-24.25 166.24-23.85 166.29-23.2 166.34-22.55 166.04-21.8L166.04-21.8 158.59-1.55Q158.24-0.6 157.56-0.13 156.89 0.35 156.04 0.35L156.04 0.35Q155.19 0.35 154.54-0.13 153.89-0.6 153.54-1.55L153.54-1.55 146.14-21.85 148.29-21.85 140.94-1.55Q140.59-0.6 139.94-0.13 139.29 0.35 138.39 0.35ZM182.64 0.45L182.64 0.45Q178.79 0.45 176.01-1.07 173.24-2.6 171.71-5.4 170.19-8.2 170.19-12.1L170.19-12.1Q170.19-15.9 171.69-18.73 173.19-21.55 175.81-23.15 178.44-24.75 181.89-24.75L181.89-24.75Q184.34-24.75 186.29-23.93 188.24-23.1 189.61-21.55 190.99-20 191.71-17.8 192.44-15.6 192.44-12.85L192.44-12.85Q192.44-12.05 191.99-11.68 191.54-11.3 190.69-11.3L190.69-11.3 173.29-11.3 173.29-13.95 189.74-13.95 188.94-13.3Q188.94-16 188.14-17.88 187.34-19.75 185.81-20.75 184.29-21.75 181.99-21.75L181.99-21.75Q179.44-21.75 177.66-20.58 175.89-19.4 174.99-17.32 174.09-15.25 174.09-12.5L174.09-12.5 174.09-12.2Q174.09-7.6 176.31-5.2 178.54-2.8 182.64-2.8L182.64-2.8Q184.34-2.8 186.01-3.25 187.69-3.7 189.29-4.75L189.29-4.75Q189.99-5.2 190.56-5.18 191.14-5.15 191.49-4.83 191.84-4.5 191.96-4.03 192.09-3.55 191.86-3 191.64-2.45 190.99-2.05L190.99-2.05Q189.34-0.85 187.09-0.2 184.84 0.45 182.64 0.45ZM208.03 0.45L208.03 0.45Q205.18 0.45 203.26-0.58 201.33-1.6 200.38-3.58 199.43-5.55 199.43-8.4L199.43-8.4 199.43-21.15 196.08-21.15Q195.23-21.15 194.78-21.58 194.33-22 194.33-22.75L194.33-22.75Q194.33-23.5 194.78-23.9 195.23-24.3 196.08-24.3L196.08-24.3 199.43-24.3 199.43-30.05Q199.43-31.05 199.98-31.58 200.53-32.1 201.48-32.1L201.48-32.1Q202.43-32.1 202.96-31.58 203.48-31.05 203.48-30.05L203.48-30.05 203.48-24.3 209.78-24.3Q210.63-24.3 211.08-23.9 211.53-23.5 211.53-22.75L211.53-22.75Q211.53-22 211.08-21.58 210.63-21.15 209.78-21.15L209.78-21.15 203.48-21.15 203.48-8.8Q203.48-5.95 204.68-4.48 205.88-3 208.58-3L208.58-3Q209.53-3 210.21-3.2 210.88-3.4 211.33-3.4L211.33-3.4Q211.78-3.45 212.08-3.1 212.38-2.75 212.38-1.9L212.38-1.9Q212.38-1.3 212.16-0.8 211.93-0.3 211.38-0.1L211.38-0.1Q210.78 0.1 209.81 0.28 208.83 0.45 208.03 0.45ZM224.38 0.45L224.38 0.45Q221.43 0.45 219.51-0.63 217.58-1.7 216.61-3.85 215.63-6 215.63-9.2L215.63-9.2 215.63-22.6Q215.63-23.65 216.16-24.15 216.68-24.65 217.63-24.65L217.63-24.65Q218.63-24.65 219.16-24.15 219.68-23.65 219.68-22.6L219.68-22.6 219.68-9.25Q219.68-6.05 221.01-4.48 222.33-2.9 225.18-2.9L225.18-2.9Q228.28-2.9 230.23-5 232.18-7.1 232.18-10.5L232.18-10.5 232.18-22.6Q232.18-23.65 232.71-24.15 233.23-24.65 234.23-24.65L234.23-24.65Q235.18-24.65 235.71-24.15 236.23-23.65 236.23-22.6L236.23-22.6 236.23-1.75Q236.23 0.35 234.28 0.35L234.28 0.35Q233.33 0.35 232.81-0.2 232.28-0.75 232.28-1.75L232.28-1.75 232.28-6.3 232.93-5.6Q231.93-2.65 229.66-1.1 227.38 0.45 224.38 0.45Z" opacity="1" transform="matrix(1,0,0,1,0,0)" fill="#ffffff" class="wordmark-text-0" data-fill-palette-color="primary" id="text-0"></path></svg></g></svg></g><g transform="matrix(1,0,0,1,0,42.32631058121957)"><svg viewBox="0 0 143.50565145599995 9.180738800742448" height="9.180738800742448" width="143.50565145599995"><g transform="matrix(1,0,0,1,0,0)"><svg width="143.50565145599995" viewBox="2.3 -35.25 697.08 44.6" height="9.180738800742448" data-palette-color="#ffffff"><path d="M13.6 0.35Q10.2 0.35 7.63-1.1 5.05-2.55 3.68-5.23 2.3-7.9 2.3-11.45L2.3-11.45Q2.3-15.5 3.78-18.55 5.25-21.6 7.93-23.28 10.6-24.95 14.15-24.95L14.15-24.95Q17.6-24.95 20.15-23.5 22.7-22.05 24.1-19.35 25.5-16.65 25.5-13.1L25.5-13.1Q25.5-9.05 24.03-6 22.55-2.95 19.85-1.3 17.15 0.35 13.6 0.35L13.6 0.35ZM13.65-3Q17.3-3 19.33-5.75 21.35-8.5 21.35-13.25L21.35-13.25Q21.35-17.25 19.48-19.43 17.6-21.6 14.15-21.6L14.15-21.6Q10.5-21.6 8.45-18.8 6.4-16 6.4-11.3L6.4-11.3Q6.4-7.25 8.25-5.13 10.1-3 13.65-3L13.65-3ZM48.9-24.35L52.95-24.35 51.05 0 47.1 0 47.4-3.95Q46.15-1.9 44.05-0.78 41.95 0.35 39.35 0.35L39.35 0.35Q35.3 0.35 33.2-1.78 31.1-3.9 31.1-8L31.1-8Q31.1-8.9 31.15-9.35L31.15-9.35 32.35-24.35 36.4-24.35 35.2-9.6Q35.15-9.25 35.15-8.55L35.15-8.55Q35.15-3.05 40.4-3.05L40.4-3.05Q43.65-3.05 45.6-5.05 47.55-7.05 47.8-10.6L47.8-10.6 48.9-24.35ZM72.7-24.85L74.05-24.95 74.05-21.45 71.3-21.2Q67.65-20.85 65.84-19.05 64.05-17.25 63.8-13.9L63.8-13.9 62.65 0 58.59 0 60.55-24.3 64.45-24.3 64.14-20.4Q65.45-22.45 67.52-23.53 69.59-24.6 72.7-24.85L72.7-24.85ZM102.99-24.95Q107.09-24.95 109.24-22.8 111.39-20.65 111.39-16.55L111.39-16.55Q111.39-15.65 111.34-15.2L111.34-15.2 110.14 0 106.09 0 107.29-14.95Q107.34-15.3 107.34-16L107.34-16Q107.34-21.55 101.99-21.55L101.99-21.55Q98.59-21.55 96.59-19.53 94.59-17.5 94.29-13.95L94.29-13.95 93.19 0 89.14 0 91.09-24.35 95.04-24.35 94.74-20.6Q95.99-22.65 98.14-23.8 100.29-24.95 102.99-24.95L102.99-24.95ZM138.94-11.55L121.09-11.55 121.09-11.35Q121.09-7.35 123.06-5.15 125.04-2.95 128.79-2.95L128.79-2.95Q133.24-2.95 136.74-5.8L136.74-5.8 137.89-2.8Q136.39-1.35 133.81-0.5 131.24 0.35 128.59 0.35L128.59 0.35Q123.29 0.35 120.16-2.85 117.04-6.05 117.04-11.45L117.04-11.45Q117.04-15.4 118.54-18.48 120.04-21.55 122.74-23.25 125.44-24.95 129.04-24.95L129.04-24.95Q133.69-24.95 136.39-22.18 139.09-19.4 139.09-14L139.09-14Q139.09-12.85 138.94-11.55L138.94-11.55ZM129.19-21.8Q125.84-21.8 123.84-19.83 121.84-17.85 121.29-14.15L121.29-14.15 135.49-14.15Q135.64-17.95 133.94-19.88 132.24-21.8 129.19-21.8L129.19-21.8ZM147.94 0L143.89 0 145.84-24.35 149.89-24.35 147.94 0ZM145.84-30.35L146.24-34.9 151.14-34.9 150.79-30.35 145.84-30.35ZM175.13-24.35L179.18-24.35 177.38-1.75Q176.48 9.35 165.78 9.35L165.78 9.35Q159.58 9.35 154.98 6.05L154.98 6.05 156.53 3.05Q159.03 4.7 161.13 5.38 163.23 6.05 165.83 6.05L165.83 6.05Q172.83 6.05 173.38-1.45L173.38-1.45 173.68-5Q172.48-3 170.33-1.88 168.18-0.75 165.58-0.75L165.58-0.75Q160.78-0.75 157.91-3.8 155.03-6.85 155.03-11.95L155.03-11.95Q155.03-15.75 156.46-18.7 157.88-21.65 160.48-23.3 163.08-24.95 166.53-24.95L166.53-24.95Q169.43-24.95 171.58-23.7 173.73-22.45 174.83-20.2L174.83-20.2 175.13-24.35ZM166.48-4.1Q170.13-4.1 172.21-6.65 174.28-9.2 174.28-13.65L174.28-13.65Q174.28-17.45 172.36-19.53 170.43-21.6 166.93-21.6L166.93-21.6Q163.28-21.6 161.21-19.03 159.13-16.45 159.13-11.95L159.13-11.95Q159.13-8.15 161.03-6.13 162.93-4.1 166.48-4.1L166.48-4.1ZM198.63-24.95Q202.73-24.95 204.88-22.8 207.03-20.65 207.03-16.55L207.03-16.55Q207.03-15.65 206.98-15.2L206.98-15.2 205.78 0 201.73 0 202.93-14.95Q202.98-15.3 202.98-16L202.98-16Q202.98-21.55 197.63-21.55L197.63-21.55Q194.23-21.55 192.23-19.53 190.23-17.5 189.93-13.95L189.93-13.95 188.83 0 184.78 0 187.58-35.25 191.63-35.25 190.43-20.7Q191.73-22.75 193.86-23.85 195.98-24.95 198.63-24.95L198.63-24.95ZM226.88-24.95Q229.93-24.95 232.28-23.5 234.63-22.05 235.93-19.38 237.23-16.7 237.23-13.15L237.23-13.15Q237.23-9.15 235.8-6.08 234.38-3 231.78-1.33 229.18 0.35 225.78 0.35L225.78 0.35Q222.93 0.35 220.78-0.9 218.63-2.15 217.58-4.4L217.58-4.4 217.23 0 213.18 0 215.98-35.25 220.03-35.25 218.88-20.75Q220.13-22.7 222.25-23.83 224.38-24.95 226.88-24.95L226.88-24.95ZM225.43-3Q228.98-3 231.03-5.7 233.08-8.4 233.08-13.15L233.08-13.15Q233.08-17.15 231.18-19.38 229.28-21.6 225.83-21.6L225.83-21.6Q222.23-21.6 220.18-18.88 218.13-16.15 218.13-11.4L218.13-11.4Q218.13-7.3 220-5.15 221.88-3 225.43-3L225.43-3ZM253.08 0.35Q249.68 0.35 247.1-1.1 244.53-2.55 243.15-5.23 241.78-7.9 241.78-11.45L241.78-11.45Q241.78-15.5 243.25-18.55 244.73-21.6 247.4-23.28 250.08-24.95 253.63-24.95L253.63-24.95Q257.08-24.95 259.63-23.5 262.18-22.05 263.58-19.35 264.98-16.65 264.98-13.1L264.98-13.1Q264.98-9.05 263.5-6 262.03-2.95 259.33-1.3 256.63 0.35 253.08 0.35L253.08 0.35ZM253.13-3Q256.78-3 258.8-5.75 260.83-8.5 260.83-13.25L260.83-13.25Q260.83-17.25 258.95-19.43 257.08-21.6 253.63-21.6L253.63-21.6Q249.98-21.6 247.93-18.8 245.88-16 245.88-11.3L245.88-11.3Q245.88-7.25 247.73-5.13 249.58-3 253.13-3L253.13-3ZM284.12-24.85L285.47-24.95 285.47-21.45 282.72-21.2Q279.07-20.85 277.27-19.05 275.47-17.25 275.22-13.9L275.22-13.9 274.07 0 270.02 0 271.97-24.3 275.87-24.3 275.57-20.4Q276.87-22.45 278.95-23.53 281.02-24.6 284.12-24.85L284.12-24.85ZM301.52-24.95Q305.62-24.95 307.77-22.8 309.92-20.65 309.92-16.55L309.92-16.55Q309.92-15.65 309.87-15.2L309.87-15.2 308.67 0 304.62 0 305.82-14.95Q305.87-15.3 305.87-16L305.87-16Q305.87-21.55 300.52-21.55L300.52-21.55Q297.12-21.55 295.12-19.53 293.12-17.5 292.82-13.95L292.82-13.95 291.72 0 287.67 0 290.47-35.25 294.52-35.25 293.32-20.7Q294.62-22.75 296.75-23.85 298.87-24.95 301.52-24.95L301.52-24.95ZM326.87 0.35Q323.47 0.35 320.89-1.1 318.32-2.55 316.94-5.23 315.57-7.9 315.57-11.45L315.57-11.45Q315.57-15.5 317.04-18.55 318.52-21.6 321.19-23.28 323.87-24.95 327.42-24.95L327.42-24.95Q330.87-24.95 333.42-23.5 335.97-22.05 337.37-19.35 338.77-16.65 338.77-13.1L338.77-13.1Q338.77-9.05 337.29-6 335.82-2.95 333.12-1.3 330.42 0.35 326.87 0.35L326.87 0.35ZM326.92-3Q330.57-3 332.59-5.75 334.62-8.5 334.62-13.25L334.62-13.25Q334.62-17.25 332.74-19.43 330.87-21.6 327.42-21.6L327.42-21.6Q323.77-21.6 321.72-18.8 319.67-16 319.67-11.3L319.67-11.3Q319.67-7.25 321.52-5.13 323.37-3 326.92-3L326.92-3ZM354.62 0.35Q351.21 0.35 348.64-1.1 346.06-2.55 344.69-5.23 343.31-7.9 343.31-11.45L343.31-11.45Q343.31-15.5 344.79-18.55 346.26-21.6 348.94-23.28 351.62-24.95 355.16-24.95L355.16-24.95Q358.62-24.95 361.16-23.5 363.71-22.05 365.12-19.35 366.51-16.65 366.51-13.1L366.51-13.1Q366.51-9.05 365.04-6 363.56-2.95 360.87-1.3 358.16 0.35 354.62 0.35L354.62 0.35ZM354.66-3Q358.31-3 360.34-5.75 362.37-8.5 362.37-13.25L362.37-13.25Q362.37-17.25 360.49-19.43 358.62-21.6 355.16-21.6L355.16-21.6Q351.51-21.6 349.46-18.8 347.41-16 347.41-11.3L347.41-11.3Q347.41-7.25 349.26-5.13 351.12-3 354.66-3L354.66-3ZM391.86-35.25L395.91-35.25 393.11 0 389.11 0 389.41-3.8Q388.16-1.85 386.04-0.75 383.91 0.35 381.41 0.35L381.41 0.35Q378.36 0.35 376.01-1.07 373.66-2.5 372.36-5.15 371.06-7.8 371.06-11.35L371.06-11.35Q371.06-15.4 372.49-18.48 373.91-21.55 376.51-23.25 379.11-24.95 382.51-24.95L382.51-24.95Q385.36-24.95 387.49-23.7 389.61-22.45 390.66-20.25L390.66-20.25 391.86-35.25ZM382.46-3Q386.06-3 388.11-5.73 390.16-8.45 390.16-13.15L390.16-13.15Q390.16-17.25 388.29-19.43 386.41-21.6 382.86-21.6L382.86-21.6Q379.31-21.6 377.24-18.9 375.16-16.2 375.16-11.5L375.16-11.5Q375.16-7.45 377.09-5.23 379.01-3 382.46-3L382.46-3ZM427.26-24.95Q430.31-24.95 432.66-23.5 435.01-22.05 436.31-19.38 437.61-16.7 437.61-13.15L437.61-13.15Q437.61-9.15 436.18-6.08 434.76-3 432.16-1.33 429.56 0.35 426.16 0.35L426.16 0.35Q423.31 0.35 421.18-0.88 419.06-2.1 417.96-4.3L417.96-4.3 416.91 9 412.86 9 415.46-24.35 419.51-24.35 419.21-20.65Q420.41-22.65 422.56-23.8 424.71-24.95 427.26-24.95L427.26-24.95ZM425.81-3Q429.36-3 431.41-5.7 433.46-8.4 433.46-13.15L433.46-13.15Q433.46-17.15 431.56-19.38 429.66-21.6 426.21-21.6L426.21-21.6Q422.61-21.6 420.56-18.88 418.51-16.15 418.51-11.4L418.51-11.4Q418.51-7.3 420.38-5.15 422.26-3 425.81-3L425.81-3ZM446.71 0L442.66 0 445.46-35.25 449.5-35.25 446.71 0ZM465.95-24.95Q474.6-24.95 474.6-16.65L474.6-16.65Q474.6-15.75 474.55-15.25L474.55-15.25 473.35 0 469.4 0 469.7-3.9Q468.6-1.8 466.68-0.73 464.75 0.35 462.3 0.35L462.3 0.35Q458.65 0.35 456.33-1.63 454-3.6 454-6.65L454-6.65Q454-9.4 455.45-11.03 456.9-12.65 460.1-13.4 463.3-14.15 468.75-14.15L468.75-14.15 470.55-14.15 470.65-15.6 470.7-16.55Q470.7-19.15 469.45-20.38 468.2-21.6 465.5-21.6L465.5-21.6Q461.4-21.6 457.25-19L457.25-19 456.15-22Q458-23.3 460.7-24.13 463.4-24.95 465.95-24.95L465.95-24.95ZM463.15-2.85Q466-2.85 468-4.85 470-6.85 470.2-10L470.2-10 470.3-11.55 468.9-11.55Q464.5-11.55 462.18-11.08 459.85-10.6 458.98-9.65 458.1-8.7 458.1-7L458.1-7Q458.1-5.1 459.45-3.98 460.8-2.85 463.15-2.85L463.15-2.85ZM494.6-24.95Q498.7-24.95 500.85-22.8 503-20.65 503-16.55L503-16.55Q503-15.65 502.95-15.2L502.95-15.2 501.75 0 497.7 0 498.9-14.95Q498.95-15.3 498.95-16L498.95-16Q498.95-21.55 493.6-21.55L493.6-21.55Q490.2-21.55 488.2-19.53 486.2-17.5 485.9-13.95L485.9-13.95 484.8 0 480.75 0 482.7-24.35 486.65-24.35 486.35-20.6Q487.6-22.65 489.75-23.8 491.9-24.95 494.6-24.95L494.6-24.95ZM523-24.95Q527.1-24.95 529.25-22.8 531.4-20.65 531.4-16.55L531.4-16.55Q531.4-15.65 531.35-15.2L531.35-15.2 530.15 0 526.1 0 527.3-14.95Q527.35-15.3 527.35-16L527.35-16Q527.35-21.55 522-21.55L522-21.55Q518.6-21.55 516.6-19.53 514.6-17.5 514.3-13.95L514.3-13.95 513.2 0 509.15 0 511.1-24.35 515.05-24.35 514.75-20.6Q516-22.65 518.15-23.8 520.3-24.95 523-24.95L523-24.95ZM541.6 0L537.54 0 539.5-24.35 543.54-24.35 541.6 0ZM539.5-30.35L539.89-34.9 544.79-34.9 544.45-30.35 539.5-30.35ZM562.99-24.95Q567.09-24.95 569.24-22.8 571.39-20.65 571.39-16.55L571.39-16.55Q571.39-15.65 571.34-15.2L571.34-15.2 570.14 0 566.09 0 567.29-14.95Q567.34-15.3 567.34-16L567.34-16Q567.34-21.55 561.99-21.55L561.99-21.55Q558.59-21.55 556.59-19.53 554.59-17.5 554.29-13.95L554.29-13.95 553.19 0 549.14 0 551.09-24.35 555.04-24.35 554.74-20.6Q555.99-22.65 558.14-23.8 560.29-24.95 562.99-24.95L562.99-24.95ZM597.19-24.35L601.24-24.35 599.44-1.75Q598.54 9.35 587.84 9.35L587.84 9.35Q581.64 9.35 577.04 6.05L577.04 6.05 578.59 3.05Q581.09 4.7 583.19 5.38 585.29 6.05 587.89 6.05L587.89 6.05Q594.89 6.05 595.44-1.45L595.44-1.45 595.74-5Q594.54-3 592.39-1.88 590.24-0.75 587.64-0.75L587.64-0.75Q582.84-0.75 579.96-3.8 577.09-6.85 577.09-11.95L577.09-11.95Q577.09-15.75 578.51-18.7 579.94-21.65 582.54-23.3 585.14-24.95 588.59-24.95L588.59-24.95Q591.49-24.95 593.64-23.7 595.79-22.45 596.89-20.2L596.89-20.2 597.19-24.35ZM588.54-4.1Q592.19-4.1 594.26-6.65 596.34-9.2 596.34-13.65L596.34-13.65Q596.34-17.45 594.41-19.53 592.49-21.6 588.99-21.6L588.99-21.6Q585.34-21.6 583.26-19.03 581.19-16.45 581.19-11.95L581.19-11.95Q581.19-8.15 583.09-6.13 584.99-4.1 588.54-4.1L588.54-4.1ZM631.43-24.95Q640.08-24.95 640.08-16.65L640.08-16.65Q640.08-15.75 640.03-15.25L640.03-15.25 638.83 0 634.88 0 635.18-3.9Q634.08-1.8 632.16-0.73 630.23 0.35 627.78 0.35L627.78 0.35Q624.13 0.35 621.81-1.63 619.48-3.6 619.48-6.65L619.48-6.65Q619.48-9.4 620.93-11.03 622.38-12.65 625.58-13.4 628.78-14.15 634.23-14.15L634.23-14.15 636.03-14.15 636.13-15.6 636.18-16.55Q636.18-19.15 634.93-20.38 633.68-21.6 630.98-21.6L630.98-21.6Q626.88-21.6 622.73-19L622.73-19 621.63-22Q623.48-23.3 626.18-24.13 628.88-24.95 631.43-24.95L631.43-24.95ZM628.63-2.85Q631.48-2.85 633.48-4.85 635.48-6.85 635.68-10L635.68-10 635.78-11.55 634.38-11.55Q629.98-11.55 627.66-11.08 625.33-10.6 624.46-9.65 623.58-8.7 623.58-7L623.58-7Q623.58-5.1 624.93-3.98 626.28-2.85 628.63-2.85L628.63-2.85ZM659.93-24.95Q662.98-24.95 665.33-23.5 667.68-22.05 668.98-19.38 670.28-16.7 670.28-13.15L670.28-13.15Q670.28-9.15 668.86-6.08 667.43-3 664.83-1.33 662.23 0.35 658.83 0.35L658.83 0.35Q655.98 0.35 653.86-0.88 651.73-2.1 650.63-4.3L650.63-4.3 649.58 9 645.53 9 648.13-24.35 652.18-24.35 651.88-20.65Q653.08-22.65 655.23-23.8 657.38-24.95 659.93-24.95L659.93-24.95ZM658.48-3Q662.03-3 664.08-5.7 666.13-8.4 666.13-13.15L666.13-13.15Q666.13-17.15 664.23-19.38 662.33-21.6 658.88-21.6L658.88-21.6Q655.28-21.6 653.23-18.88 651.18-16.15 651.18-11.4L651.18-11.4Q651.18-7.3 653.06-5.15 654.93-3 658.48-3L658.48-3ZM689.03-24.95Q692.08-24.95 694.43-23.5 696.78-22.05 698.08-19.38 699.38-16.7 699.38-13.15L699.38-13.15Q699.38-9.15 697.95-6.08 696.53-3 693.93-1.33 691.33 0.35 687.93 0.35L687.93 0.35Q685.08 0.35 682.95-0.88 680.83-2.1 679.73-4.3L679.73-4.3 678.68 9 674.63 9 677.23-24.35 681.28-24.35 680.98-20.65Q682.18-22.65 684.33-23.8 686.48-24.95 689.03-24.95L689.03-24.95ZM687.58-3Q691.13-3 693.18-5.7 695.23-8.4 695.23-13.15L695.23-13.15Q695.23-17.15 693.33-19.38 691.43-21.6 687.98-21.6L687.98-21.6Q684.38-21.6 682.33-18.88 680.28-16.15 680.28-11.4L680.28-11.4Q680.28-7.3 682.15-5.15 684.03-3 687.58-3L687.58-3Z" opacity="1" transform="matrix(1,0,0,1,0,0)" fill="#ffffff" class="slogan-text-1" data-fill-palette-color="secondary" id="text-1"></path></svg></g></svg></g></svg></g></svg></g><g><svg viewBox="0 0 83.1144428905203 71.18274224587152" height="71.18274224587152" width="83.1144428905203"><g><svg xmlns="http://www.w3.org/2000/svg" xmlns:xlink="http://www.w3.org/1999/xlink" version="1.1" x="0" y="0" viewBox="6.931836259619621 12.396 76.13655595158154 65.20658322800288" enable-background="new 0 0 90 90" xml:space="preserve" height="71.18274224587152" width="83.1144428905203" class="icon-icon-0" data-fill-palette-color="accent" id="icon-0"><path d="M82.289 56.534L43.614 73.206C42.227 73.806 40.295 74.135 38.175 74.135 36.179 74.135 34.194 73.844 32.586 73.314L9.03 65.536A8.5 8.5 0 0 1 6.937 64.535L6.946 66.802C6.807 67.612 7.721 68.474 9.588 69.091L33.142 76.868C36.162 77.865 40.535 77.845 42.908 76.821L81.582 60.147C82.662 59.679 83.145 59.084 83.057 58.482L83.065 56.071C82.814 56.229 82.611 56.395 82.289 56.534" fill="#ffffff" data-fill-palette-color="accent"></path><g fill="#ffffff" data-fill-palette-color="accent"><path d="M80.412 51.239L57.974 43.828C57.529 44.637 57.078 45.435 56.622 46.22L75.693 52.518C76.795 52.884 76.99 53.484 76.119 53.857L43.784 67.797C42.916 68.173 41.317 68.18 40.213 67.815L18.635 60.694C17.528 60.329 17.341 59.727 18.209 59.354L36.549 51.448A166 166 0 0 1 34.891 48.768L8.418 60.182C6.047 61.206 6.568 62.845 9.588 63.841L33.142 71.618C36.162 72.613 40.535 72.593 42.908 71.569L81.582 54.895C83.955 53.872 83.43 52.236 80.412 51.239M27.584 66.879C26.54 67.328 24.619 67.339 23.292 66.899 21.961 66.464 21.732 65.741 22.775 65.291S25.741 64.831 27.07 65.269C28.397 65.708 28.63 66.429 27.584 66.879" fill="#ffffff" data-fill-palette-color="accent"></path></g><path d="M45 56.608S59.917 35.549 59.917 27.313 53.235 12.396 45 12.396C36.762 12.396 30.083 19.075 30.083 27.313S45 56.608 45 56.608M45 20.445A6.866 6.866 0 0 1 45 34.175 6.866 6.866 0 0 1 45 20.445" fill="#ffffff" data-fill-palette-color="accent"></path></svg></g></svg></g></svg></g></svg></g><g><path d="M0 123.6c0-68.262 55.338-123.6 123.6-123.6 58.323 0 107.212 40.396 120.212 94.736h-1.157c-12.976-53.713-61.356-93.612-119.055-93.612-67.641 0-122.476 54.834-122.476 122.476 0 67.641 54.834 122.476 122.476 122.476 57.699 0 106.079-39.899 119.055-93.612l1.157 0c-13 54.34-61.888 94.736-120.212 94.736-68.262 0-123.6-55.338-123.6-123.6z" fill="#ffffff" stroke="transparent" data-fill-palette-color="tertiary"></path></g></svg></g><defs></defs></svg><rect width="395.52" height="247.2" fill="none" stroke="none" visibility="hidden"></rect></g></svg></g></svg>